<?xml version="1.0" standalone="no"?>
<!DOCTYPE svg PUBLIC "-//W3C//DTD SVG 20010904//EN"
 "http://www.w3.org/TR/2001/REC-SVG-20010904/DTD/svg10.dtd">
<svg version="1.0" xmlns="http://www.w3.org/2000/svg"
 width="1024.000000pt" height="1024.000000pt" viewBox="0 0 1024.000000 1024.000000"
 preserveAspectRatio="xMidYMid meet">
<metadata>
Created by potrace 1.14, written by Peter Selinger 2001-2017
</metadata>
<g transform="translate(0.000000,1024.000000) scale(0.100000,-0.100000)"
fill="#000000" stroke="none">
<path d="M4975 9240 c-22 -4 -71 -12 -108 -19 -37 -6 -100 -22 -140 -35 -40
-13 -103 -26 -142 -30 -38 -3 -101 -13 -140 -20 -38 -8 -99 -20 -135 -27 -36
-7 -141 -13 -235 -14 l-170 -1 -65 -34 c-36 -19 -105 -68 -155 -107 -95 -77
-136 -100 -237 -134 -35 -12 -95 -36 -133 -55 -39 -19 -74 -34 -78 -34 -5 0
-34 -13 -65 -28 -32 -16 -68 -32 -82 -35 -14 -4 -49 -26 -78 -50 -30 -25 -72
-50 -95 -57 -50 -16 -103 -45 -137 -76 -24 -22 -122 -64 -149 -64 -7 0 -30 13
-50 28 -62 47 -86 54 -155 42 -166 -30 -264 -135 -290 -310 -14 -91 -31 -132
-63 -148 -10 -5 -53 -17 -96 -26 -50 -11 -80 -23 -86 -35 -5 -9 -14 -56 -19
-104 -5 -48 -16 -94 -23 -103 -7 -9 -40 -29 -73 -46 -70 -35 -78 -44 -113
-118 -35 -75 -50 -91 -76 -81 -66 25 -233 19 -261 -9 -18 -18 -8 -140 15 -187
22 -45 54 -65 134 -83 79 -17 80 -18 61 -39 -18 -20 -73 -123 -133 -246 -18
-38 -37 -77 -42 -85 -4 -8 -39 -27 -77 -42 -103 -42 -124 -68 -140 -171 -8
-46 -29 -132 -48 -190 -19 -57 -44 -149 -56 -202 -11 -54 -25 -106 -30 -116
-6 -10 -21 -66 -35 -124 -14 -59 -35 -125 -46 -148 -24 -46 -42 -142 -58 -305
-11 -108 -11 -116 15 -210 14 -53 36 -117 49 -142 12 -25 28 -74 34 -110 17
-92 30 -549 19 -640 -15 -123 -5 -226 57 -560 19 -100 22 -146 18 -226 -9
-158 24 -271 109 -372 45 -53 58 -78 86 -170 19 -59 45 -138 59 -177 43 -122
61 -188 73 -264 9 -56 28 -105 76 -201 35 -70 64 -132 64 -138 0 -22 63 -198
82 -230 20 -32 95 -88 172 -127 33 -16 59 -20 152 -20 109 0 114 1 141 28 37
35 58 34 72 -1 10 -25 8 -36 -14 -81 -33 -65 -27 -85 40 -138 64 -50 78 -58
143 -73 47 -11 58 -10 93 5 21 10 39 21 39 24 0 3 15 22 33 42 25 29 42 37 80
42 l47 7 0 -123 c0 -140 13 -177 71 -209 40 -23 118 -19 169 7 31 16 37 16 92
-1 56 -17 98 -52 98 -83 0 -6 24 -37 53 -69 30 -32 57 -72 61 -88 4 -16 15
-37 24 -48 21 -23 144 -114 197 -145 22 -13 68 -42 102 -63 70 -45 357 -163
478 -198 44 -12 100 -28 125 -36 133 -40 382 -70 575 -68 115 1 126 3 258 48
106 35 154 46 200 46 60 0 64 -2 117 -50 67 -60 91 -65 274 -57 189 8 505 73
664 136 130 52 346 143 375 157 50 26 178 114 218 149 20 18 67 50 105 70 48
27 101 71 176 147 80 80 122 114 163 132 30 14 74 38 97 53 63 42 88 51 206
72 130 24 246 68 329 127 79 56 117 101 178 211 99 179 142 238 220 302 97 80
110 99 107 170 l-3 56 124 120 c68 66 138 141 155 166 18 25 53 62 77 82 51
43 104 132 141 238 24 67 26 84 21 176 -4 76 -12 118 -31 166 -14 35 -26 72
-26 81 0 30 51 105 120 176 83 86 152 208 181 320 28 111 23 209 -19 340 -17
52 -34 118 -37 145 -6 46 -4 53 25 90 56 70 55 65 56 320 1 249 3 262 55 475
26 104 23 235 -10 410 -12 63 -27 140 -32 170 -38 212 -60 327 -68 354 -6 17
-15 85 -21 151 -14 156 -42 258 -86 315 -18 25 -48 65 -65 90 -18 25 -43 57
-57 72 -28 31 -26 39 23 107 31 42 31 69 4 123 -27 52 -53 75 -104 88 -112 31
-131 44 -228 155 -20 23 -58 52 -86 64 -78 37 -81 53 -52 292 9 74 8 98 -8
170 -45 201 -120 307 -270 384 -115 58 -268 71 -428 38 -89 -18 -74 -21 -203
34 -19 8 -73 40 -118 71 -46 31 -103 68 -125 80 -23 13 -79 46 -123 73 -45 27
-86 49 -92 49 -6 0 -28 7 -49 16 -21 9 -56 24 -77 33 -22 9 -74 33 -115 55
-42 21 -93 44 -114 52 -20 7 -52 24 -70 37 -40 30 -128 67 -159 67 -13 0 -54
12 -93 26 -102 37 -219 69 -445 122 -61 15 -167 37 -270 57 -47 9 -123 28
-170 41 -235 70 -370 87 -495 64z m2803 -2137 c-4 -20 -35 -30 -50 -15 -15 15
0 32 28 32 19 0 25 -5 22 -17z"/>
</g>
</svg>
